<svg width="1133" height="465" viewBox="0 0 1133 465" fill="none" xmlns="http://www.w3.org/2000/svg">
<path d="M150.478 148.236L115.607 140.824C115.973 137.886 115.87 135.129 115.297 132.551C114.766 129.983 113.753 127.657 112.257 125.572C110.812 123.456 108.887 121.668 106.483 120.209C104.087 118.709 101.241 117.609 97.9434 116.908C92.1727 115.681 86.9903 116.044 82.3963 117.997C77.8435 119.959 73.9802 123.338 70.8065 128.135C67.6741 132.941 65.3281 139.012 63.7686 146.349C62.1214 154.098 61.772 160.809 62.7202 166.482C63.7185 172.123 65.9158 176.683 69.3121 180.162C72.7172 183.6 77.202 185.91 82.7666 187.093C85.9405 187.767 88.8679 187.98 91.5487 187.732C94.2383 187.442 96.6726 186.731 98.8517 185.6C101.031 184.47 102.925 182.955 104.535 181.057C106.195 179.126 107.52 176.845 108.51 174.212L143.329 181.871C141.778 187.142 139.112 192.284 135.333 197.297C131.562 202.268 126.786 206.595 121.006 210.278C115.276 213.928 108.605 216.431 100.993 217.785C93.3813 219.14 84.9382 218.832 75.6639 216.86C64.04 214.39 54.1416 209.679 45.9686 202.729C37.8368 195.788 32.1212 186.904 28.8216 176.079C25.5632 165.262 25.4235 152.846 28.4024 138.832C31.3988 124.735 36.6426 113.442 44.1337 104.953C51.6336 96.423 60.5258 90.6661 70.8103 87.6823C81.1035 84.6574 91.9384 84.354 103.315 86.7721C111.312 88.4718 118.437 91.1281 124.691 94.7408C130.946 98.3535 136.161 102.801 140.337 108.083C144.522 113.324 147.512 119.323 149.307 126.081C151.102 132.838 151.492 140.223 150.478 148.236ZM195.133 242.254C184.828 240.064 176.441 236.149 169.971 230.508C163.51 224.827 159.102 217.901 156.745 209.732C154.398 201.521 154.258 192.552 156.326 182.825C158.393 173.097 162.165 164.981 167.64 158.476C173.124 151.93 179.969 147.396 188.173 144.875C196.386 142.313 205.645 142.127 215.95 144.317C226.255 146.507 234.638 150.443 241.099 156.125C247.568 161.765 251.977 168.691 254.324 176.901C256.681 185.071 256.825 194.019 254.757 203.747C252.69 213.475 248.914 221.611 243.43 228.157C237.954 234.662 231.11 239.196 222.897 241.758C214.692 244.279 205.438 244.445 195.133 242.254ZM200.742 217.081C203.628 217.694 206.327 217.255 208.841 215.765C211.355 214.274 213.57 211.859 215.487 208.518C217.403 205.177 218.887 201.034 219.938 196.087C220.998 191.1 221.328 186.711 220.928 182.921C220.536 179.089 219.495 175.982 217.804 173.597C216.114 171.213 213.826 169.715 210.941 169.101C207.89 168.453 205.067 168.865 202.471 170.338C199.874 171.811 197.618 174.218 195.701 177.559C193.794 180.858 192.31 185.002 191.25 189.989C190.198 194.936 189.869 199.325 190.26 203.156C190.652 206.987 191.735 210.104 193.508 212.506C195.28 214.907 197.692 216.432 200.742 217.081ZM319.611 134.557L292.696 261.182L258.566 253.928L285.482 127.302L319.611 134.557ZM371.13 145.507L344.215 272.133L310.085 264.879L337.001 138.253L371.13 145.507ZM387.752 282.938C381.692 281.65 376.544 279.522 372.307 276.553C368.12 273.552 365.141 269.731 363.37 265.09C361.6 260.448 361.384 254.974 362.725 248.668C363.829 243.474 365.657 239.231 368.209 235.94C370.77 232.607 373.887 230.103 377.561 228.428C381.234 226.753 385.304 225.744 389.771 225.401C394.28 225.067 399.026 225.236 404.01 225.907C409.415 226.625 413.786 227.038 417.124 227.144C420.512 227.218 423.041 226.872 424.711 226.107C426.39 225.301 427.423 223.991 427.808 222.177L427.861 221.93C428.387 219.457 427.842 217.359 426.226 215.637C424.61 213.915 422.318 212.739 419.351 212.108C416.094 211.416 413.282 211.572 410.915 212.576C408.597 213.549 406.921 215.454 405.887 218.293L374.478 211.617C376.116 205.934 379.081 201.006 383.371 196.835C387.711 192.631 393.346 189.735 400.274 188.149C407.212 186.522 415.4 186.712 424.839 188.718C431.64 190.164 437.57 192.264 442.628 195.019C447.695 197.733 451.822 200.916 455.01 204.566C458.206 208.175 460.391 212.086 461.563 216.298C462.785 220.479 462.928 224.774 461.99 229.184L448.165 294.228L416.261 287.447L419.1 274.092L418.358 273.934C415.708 277.076 412.791 279.45 409.606 281.057C406.463 282.672 403.055 283.606 399.382 283.859C395.75 284.121 391.874 283.814 387.752 282.938ZM403.454 263.787C406.051 264.339 408.597 264.32 411.092 263.73C413.628 263.149 415.832 262.002 417.704 260.289C419.576 258.576 420.819 256.277 421.432 253.392L423.114 245.477C422.128 245.656 421.085 245.8 419.985 245.911C418.925 246.03 417.788 246.112 416.573 246.155C415.398 246.207 414.146 246.221 412.816 246.196C411.526 246.181 410.18 246.132 408.776 246.049C406.05 245.9 403.742 246.12 401.85 246.709C400.009 247.265 398.531 248.136 397.418 249.321C396.354 250.474 395.647 251.874 395.297 253.523C394.736 256.161 395.234 258.378 396.791 260.174C398.348 261.969 400.569 263.174 403.454 263.787ZM463.978 297.59L490.893 170.964L525.022 178.218L514.772 226.445L515.266 226.55C517.186 223.598 519.626 221.036 522.586 218.865C525.555 216.653 528.983 215.12 532.87 214.265C536.765 213.37 541.062 213.422 545.761 214.421C552.027 215.752 557.628 218.688 562.565 223.227C567.544 227.775 571.043 234.012 573.064 241.937C575.125 249.872 574.938 259.568 572.503 271.027C570.172 281.992 566.53 290.717 561.575 297.203C556.662 303.698 550.984 308.113 544.543 310.449C538.142 312.794 531.562 313.247 524.802 311.811C520.35 310.864 516.526 309.298 513.329 307.11C510.182 304.89 507.639 302.26 505.7 299.22C503.812 296.148 502.549 292.864 501.914 289.368L501.172 289.211L497.86 304.791L463.978 297.59ZM507.458 257.202C506.477 261.818 506.225 265.944 506.702 269.578C507.229 273.179 508.408 276.144 510.24 278.472C512.121 280.768 514.628 282.248 517.761 282.914C520.894 283.58 523.741 283.259 526.302 281.951C528.913 280.61 531.151 278.393 533.015 275.3C534.929 272.174 536.385 268.261 537.384 263.562C538.383 258.863 538.639 254.718 538.153 251.125C537.718 247.499 536.575 244.564 534.726 242.318C532.927 240.04 530.461 238.569 527.328 237.903C524.196 237.237 521.303 237.57 518.651 238.901C516.048 240.201 513.769 242.409 511.814 245.526C509.909 248.611 508.457 252.503 507.458 257.202ZM622.077 333.004C611.772 330.814 603.385 326.898 596.916 321.258C590.455 315.577 586.046 308.651 583.69 300.482C581.342 292.271 581.202 283.302 583.27 273.574C585.338 263.847 589.109 255.73 594.585 249.226C600.069 242.68 606.913 238.146 615.117 235.625C623.331 233.063 632.59 232.877 642.894 235.067C653.199 237.257 661.582 241.193 668.043 246.875C674.513 252.515 678.921 259.44 681.269 267.651C683.625 275.82 683.769 284.769 681.702 294.497C679.634 304.225 675.858 312.361 670.374 318.907C664.899 325.412 658.054 329.946 649.841 332.508C641.637 335.029 632.382 335.195 622.077 333.004ZM627.687 307.83C630.572 308.444 633.272 308.005 635.786 306.515C638.3 305.024 640.515 302.609 642.431 299.268C644.348 295.927 645.831 291.784 646.883 286.837C647.943 281.85 648.273 277.461 647.872 273.671C647.48 269.839 646.439 266.732 644.749 264.347C643.058 261.963 640.77 260.465 637.885 259.851C634.835 259.203 632.011 259.615 629.415 261.088C626.819 262.561 624.562 264.968 622.646 268.309C620.738 271.608 619.254 275.752 618.194 280.739C617.143 285.686 616.813 290.074 617.205 293.906C617.597 297.737 618.679 300.854 620.452 303.255C622.225 305.657 624.636 307.182 627.687 307.83ZM685.511 344.678L705.697 249.709L738.838 256.753L735 274.807L735.989 275.017C739.14 268.708 742.919 264.406 747.327 262.112C751.777 259.826 756.536 259.222 761.606 260.3C763.09 260.615 764.527 261.05 765.917 261.604C767.357 262.126 768.714 262.737 769.986 263.438L763.796 292.56C762.229 291.623 760.239 290.748 757.827 289.934C755.416 289.12 753.324 288.524 751.551 288.148C748.212 287.438 745.041 287.561 742.038 288.516C739.084 289.44 736.556 291.099 734.453 293.496C732.358 295.851 730.925 298.842 730.154 302.469L719.64 351.932L685.511 344.678ZM782.731 366.894C776.671 365.606 771.523 363.477 767.286 360.509C763.099 357.508 760.12 353.687 758.349 349.045C756.578 344.404 756.363 338.93 757.704 332.623C758.808 327.43 760.636 323.187 763.188 319.895C765.749 316.562 768.866 314.058 772.539 312.383C776.213 310.708 780.283 309.699 784.75 309.357C789.259 309.022 794.005 309.191 798.989 309.863C804.394 310.581 808.765 310.993 812.103 311.099C815.491 311.173 818.02 310.828 819.69 310.063C821.369 309.256 822.402 307.946 822.787 306.133L822.84 305.885C823.365 303.412 822.82 301.315 821.205 299.593C819.589 297.871 817.297 296.694 814.329 296.063C811.073 295.371 808.261 295.527 805.894 296.532C803.576 297.504 801.9 299.41 800.866 302.249L769.457 295.572C771.095 289.889 774.06 284.962 778.35 280.79C782.69 276.586 788.325 273.691 795.253 272.105C802.191 270.477 810.379 270.667 819.818 272.673C826.619 274.119 832.549 276.219 837.607 278.975C842.674 281.689 846.801 284.871 849.989 288.521C853.185 292.13 855.369 296.041 856.542 300.254C857.764 304.434 857.907 308.729 856.969 313.14L843.144 378.184L811.24 371.403L814.079 358.047L813.337 357.89C810.687 361.032 807.77 363.406 804.585 365.012C801.442 366.627 798.033 367.561 794.361 367.815C790.729 368.077 786.853 367.77 782.731 366.894ZM798.433 347.743C801.03 348.295 803.576 348.276 806.071 347.686C808.607 347.105 810.811 345.958 812.683 344.245C814.555 342.532 815.798 340.232 816.411 337.347L818.093 329.433C817.107 329.611 816.064 329.756 814.964 329.866C813.904 329.986 812.767 330.067 811.551 330.11C810.377 330.162 809.125 330.176 807.795 330.152C806.505 330.136 805.159 330.087 803.755 330.004C801.029 329.856 798.721 330.076 796.829 330.665C794.987 331.221 793.51 332.092 792.396 333.277C791.333 334.429 790.626 335.83 790.275 337.479C789.715 340.117 790.213 342.333 791.77 344.129C793.327 345.925 795.548 347.129 798.433 347.743ZM936.273 298.719L931.016 323.451L868.445 310.151L873.702 285.419L936.273 298.719ZM890.657 265.242L924.786 272.496L906.256 359.675C905.976 360.994 905.966 362.155 906.226 363.159C906.496 364.121 907.056 364.929 907.908 365.584C908.768 366.198 909.941 366.662 911.424 366.978C912.455 367.197 913.677 367.327 915.089 367.369C916.543 367.42 917.618 367.432 918.312 367.408L918.159 392.449C916.538 392.578 914.235 392.67 911.251 392.725C908.308 392.789 904.877 392.512 900.958 391.894C893.039 390.642 886.636 388.441 881.748 385.291C876.868 382.1 873.558 378.014 871.816 373.034C870.074 368.054 869.95 362.255 871.443 355.636L890.657 265.242ZM974.131 407.836C963.991 405.68 955.665 401.886 949.151 396.451C942.688 390.985 938.253 384.183 935.847 376.046C933.49 367.877 933.399 358.681 935.571 348.459C937.657 338.648 941.458 330.495 946.974 323.999C952.491 317.503 959.289 312.982 967.37 310.434C975.451 307.887 984.396 307.656 994.207 309.741C1001.38 311.265 1007.63 313.758 1012.97 317.219C1018.31 320.681 1022.59 324.972 1025.81 330.094C1029.04 335.174 1031.13 340.96 1032.07 347.451C1033.02 353.942 1032.69 360.96 1031.09 368.503L1029.41 376.417L944.576 358.386L948.572 339.59L1001.99 350.945C1002.53 348.215 1002.34 345.676 1001.41 343.326C1000.54 340.943 999.095 338.934 997.073 337.298C995.102 335.629 992.694 334.493 989.849 333.888C987.088 333.301 984.426 333.36 981.863 334.065C979.31 334.728 977.113 335.942 975.274 337.705C973.475 339.476 972.241 341.734 971.572 344.479L967.261 364.759C966.613 367.809 966.674 370.665 967.443 373.327C968.213 375.99 969.649 378.255 971.75 380.123C973.852 381.992 976.593 383.285 979.973 384.004C982.322 384.503 984.536 384.629 986.613 384.381C988.732 384.142 990.623 383.553 992.288 382.615C993.961 381.635 995.315 380.329 996.351 378.697L1027.51 385.32C1025.04 391.687 1021.29 396.878 1016.25 400.892C1011.23 404.865 1005.14 407.49 997.973 408.767C990.858 410.012 982.911 409.702 974.131 407.836Z" fill="#0A0B1E"/>
<path d="M1058.99 424.343C1053.62 423.201 1049.41 420.346 1046.36 415.778C1043.37 411.173 1042.47 406.166 1043.67 400.757C1044.75 395.467 1047.58 391.35 1052.18 388.406C1056.82 385.472 1061.83 384.576 1067.2 385.718C1072.29 386.801 1076.39 389.631 1079.48 394.21C1082.62 398.798 1083.65 403.737 1082.58 409.026C1081.76 412.629 1080.11 415.715 1077.63 418.286C1075.2 420.819 1072.34 422.656 1069.05 423.796C1065.77 424.889 1062.42 425.072 1058.99 424.343Z" fill="#0A0B1E"/>
</svg>
