<svg width="497" height="284" viewBox="0 0 497 284" fill="none" xmlns="http://www.w3.org/2000/svg">
<path d="M50.8294 247.37L23.763 120.032L78.7269 108.35C88.1777 106.341 96.8436 106.448 104.725 108.672C112.606 110.896 119.233 114.968 124.607 120.887C129.981 126.807 133.629 134.285 135.549 143.321C137.488 152.44 137.135 160.768 134.491 168.305C131.889 175.834 127.324 182.176 120.795 187.333C114.307 192.481 106.214 196.086 96.5144 198.148L63.6853 205.126L57.976 178.266L83.8413 172.768C87.9035 171.904 91.2149 170.464 93.7754 168.447C96.3686 166.379 98.1501 163.856 99.1199 160.877C100.131 157.889 100.254 154.593 99.487 150.986C98.7117 147.339 97.2633 144.397 95.1419 142.162C93.0532 139.877 90.4126 138.358 87.2203 137.607C84.0606 136.806 80.4497 136.837 76.3875 137.7L64.201 140.291L85.3994 240.021L50.8294 247.37ZM173.484 88.2083L200.55 215.545L166.229 222.841L139.162 95.5036L173.484 88.2083ZM244.966 207.664C238.872 208.959 233.272 209.11 228.165 208.116C223.091 207.072 218.792 204.78 215.266 201.24C211.741 197.7 209.305 192.759 207.957 186.417C206.847 181.194 206.791 176.549 207.789 172.481C208.778 168.372 210.618 164.796 213.307 161.755C215.997 158.714 219.323 156.122 223.287 153.98C227.292 151.829 231.721 150.043 236.575 148.621C241.834 147.07 246.018 145.661 249.128 144.393C252.271 143.076 254.453 141.724 255.674 140.338C256.887 138.91 257.3 137.284 256.912 135.46L256.859 135.212C256.331 132.725 254.972 131.021 252.783 130.1C250.595 129.178 248.008 129.035 245.024 129.669C241.749 130.365 239.23 131.659 237.465 133.55C235.734 135.391 234.974 137.828 235.185 140.859L203.599 147.572C202.78 141.681 203.488 135.942 205.723 130.355C207.991 124.717 211.983 119.753 217.699 115.462C223.407 111.129 231.007 107.954 240.499 105.937C247.338 104.483 253.645 103.987 259.419 104.45C265.183 104.87 270.277 106.106 274.698 108.155C279.111 110.163 282.717 112.863 285.517 116.253C288.35 119.594 290.238 123.481 291.181 127.917L305.084 193.326L273.001 200.145L270.146 186.715L269.4 186.874C268.251 190.844 266.542 194.218 264.273 196.997C262.046 199.766 259.297 202.019 256.027 203.753C252.798 205.48 249.111 206.783 244.966 207.664ZM251.558 183.648C254.17 183.093 256.501 182.034 258.551 180.472C260.644 178.901 262.199 176.946 263.218 174.606C264.237 172.267 264.439 169.646 263.822 166.744L262.13 158.786C261.297 159.353 260.398 159.912 259.433 160.464C258.508 161.007 257.497 161.547 256.398 162.084C255.34 162.612 254.195 163.137 252.963 163.659C251.772 164.172 250.515 164.677 249.191 165.175C246.627 166.154 244.596 167.3 243.099 168.615C241.635 169.879 240.634 171.283 240.095 172.827C239.59 174.321 239.513 175.897 239.866 177.555C240.429 180.208 241.794 182.041 243.959 183.054C246.123 184.067 248.657 184.265 251.558 183.648ZM344.386 128.825L355.804 182.545L321.483 189.84L301.183 94.3375L333.764 87.4123L337.623 105.568L338.617 105.356C339.404 98.864 342.042 93.3425 346.534 88.792C351.067 84.2326 356.836 81.2084 363.841 79.7194C370.598 78.2832 376.793 78.5909 382.428 80.6425C388.096 82.6438 392.87 86.0479 396.751 90.8551C400.674 95.6534 403.35 101.518 404.78 108.449L417.732 169.382L383.411 176.677L371.992 122.957C371.029 118.223 369.038 114.768 366.02 112.594C363.043 110.411 359.399 109.777 355.088 110.693C352.27 111.292 349.936 112.438 348.086 114.131C346.269 115.774 345.043 117.854 344.408 120.372C343.765 122.848 343.757 125.666 344.386 128.825Z" fill="#0A0B1E"/>
<path d="M460.336 170.838C454.963 171.98 449.956 171.084 445.315 168.149C440.71 165.159 437.855 160.949 436.749 155.521C435.581 150.251 436.497 145.337 439.497 140.778C442.544 136.209 446.753 133.354 452.126 132.212C457.22 131.129 462.111 132.05 466.799 134.975C471.533 137.889 474.484 141.982 475.653 147.251C476.374 150.874 476.124 154.364 474.901 157.722C473.715 161.023 471.851 163.864 469.307 166.244C466.753 168.578 463.763 170.109 460.336 170.838Z" fill="#0A0B1E"/>
</svg>
