<svg width="643" height="361" viewBox="0 0 643 361" fill="none" xmlns="http://www.w3.org/2000/svg">
<path d="M50.185 322.786L23.8747 199.006L77.3033 187.649C86.4901 185.696 94.884 185.66 102.485 187.54C110.086 189.419 116.468 193.095 121.632 198.567C126.796 204.039 130.312 211.167 132.179 219.951C134.063 228.816 133.677 236.71 131.022 243.633C128.407 250.548 123.883 256.311 117.451 260.921C111.059 265.522 103.149 268.825 93.7204 270.829L61.8083 277.612L56.2584 251.502L81.4013 246.158C85.35 245.319 88.6117 244.12 91.1864 242.562C93.7928 240.955 95.6101 238.905 96.6385 236.413C97.7072 233.911 97.8689 230.908 97.1238 227.402C96.3701 223.857 94.9922 221.138 92.99 219.248C91.0195 217.308 88.5127 216.114 85.4695 215.666C82.4581 215.169 78.978 215.341 75.0293 216.18L63.1831 218.698L83.7894 315.643L50.185 322.786ZM110.636 250.556L153.658 300.792L117.152 308.551L74.8563 258.162L110.636 250.556ZM207.204 291.179C197.292 293.286 188.347 293.208 180.37 290.945C172.425 288.633 165.76 284.322 160.376 278.012C155.023 271.654 151.285 263.478 149.161 253.486C147.123 243.896 147.276 235.104 149.619 227.109C151.963 219.115 156.236 212.374 162.44 206.886C168.643 201.398 176.54 197.635 186.129 195.597C193.14 194.107 199.718 193.846 205.862 194.814C212.005 195.782 217.533 197.913 222.444 201.207C227.347 204.46 231.512 208.797 234.938 214.217C238.364 219.638 240.861 226.035 242.429 233.408L244.073 241.145L161.15 258.77L157.244 240.397L209.464 229.297C208.859 226.646 207.677 224.455 205.919 222.723C204.193 220.942 202.102 219.723 199.646 219.066C197.222 218.36 194.619 218.302 191.839 218.893C189.14 219.467 186.786 220.578 184.778 222.226C182.761 223.834 181.282 225.791 180.34 228.097C179.439 230.394 179.235 232.901 179.728 235.618L183.942 255.442C184.575 258.424 185.765 260.95 187.511 263.022C189.257 265.093 191.44 266.545 194.059 267.378C196.679 268.211 199.641 268.277 202.945 267.574C205.241 267.086 207.268 266.318 209.025 265.271C210.822 264.215 212.277 262.938 213.39 261.438C214.494 259.897 215.185 258.192 215.461 256.323L245.923 249.848C246.246 256.517 244.958 262.645 242.06 268.23C239.154 273.775 234.756 278.543 228.865 282.532C223.007 286.472 215.786 289.355 207.204 291.179ZM310.994 269.118C300.921 271.259 291.874 271.097 283.854 268.633C275.825 266.128 269.135 261.696 263.783 255.338C258.422 248.939 254.731 240.985 252.709 231.476C250.688 221.967 250.829 213.219 253.132 205.233C255.427 197.207 259.737 190.437 266.061 184.924C272.377 179.37 280.571 175.523 290.644 173.382C299.751 171.446 307.979 171.424 315.33 173.314C322.712 175.157 328.875 178.69 333.818 183.914C338.752 189.098 342.095 195.715 343.849 203.765L312.904 210.343C311.424 205.561 309.226 202.154 306.309 200.121C303.424 198.039 300.128 197.392 296.421 198.18C293.52 198.797 291.161 200.182 289.345 202.337C287.52 204.452 286.363 207.33 285.874 210.971C285.376 214.572 285.667 218.911 286.746 223.988C287.825 229.065 289.329 233.168 291.257 236.295C293.176 239.383 295.404 241.541 297.94 242.771C300.467 243.961 303.181 244.247 306.082 243.63C308.54 243.108 310.596 242.081 312.249 240.551C313.895 238.98 315.066 236.962 315.764 234.497C316.493 231.984 316.636 229.09 316.192 225.815L347.137 219.238C348.755 227.443 348.397 234.973 346.064 241.828C343.723 248.643 339.579 254.409 333.633 259.126C327.727 263.834 320.181 267.165 310.994 269.118ZM395.301 250.945C389.378 252.204 383.934 252.35 378.97 251.384C374.038 250.369 369.858 248.141 366.431 244.7C363.005 241.259 360.636 236.456 359.326 230.292C358.247 225.215 358.192 220.699 359.163 216.745C360.124 212.75 361.913 209.275 364.527 206.318C367.141 203.362 370.375 200.843 374.228 198.761C378.121 196.67 382.427 194.933 387.144 193.551C392.257 192.044 396.324 190.674 399.347 189.442C402.402 188.161 404.523 186.846 405.711 185.499C406.89 184.111 407.291 182.531 406.914 180.758L406.862 180.516C406.349 178.099 405.028 176.442 402.9 175.547C400.773 174.652 398.258 174.512 395.357 175.129C392.174 175.805 389.725 177.063 388.01 178.901C386.327 180.691 385.588 183.059 385.793 186.006L355.09 192.532C354.294 186.805 354.982 181.226 357.155 175.795C359.359 170.315 363.239 165.489 368.796 161.318C374.344 157.107 381.732 154.02 390.959 152.059C397.607 150.646 403.738 150.164 409.35 150.614C414.954 151.023 419.905 152.223 424.203 154.216C428.492 156.168 431.998 158.792 434.72 162.087C437.474 165.334 439.309 169.114 440.225 173.425L453.74 237.007L422.553 243.636L419.778 230.581L419.053 230.736C417.936 234.595 416.275 237.875 414.069 240.576C411.904 243.268 409.232 245.457 406.053 247.144C402.914 248.821 399.33 250.089 395.301 250.945ZM401.709 227.6C404.248 227.06 406.514 226.031 408.507 224.512C410.541 222.985 412.053 221.084 413.044 218.81C414.034 216.536 414.23 213.989 413.63 211.168L411.986 203.432C411.177 203.983 410.303 204.527 409.364 205.063C408.465 205.591 407.482 206.116 406.414 206.638C405.386 207.151 404.273 207.662 403.075 208.169C401.918 208.668 400.696 209.159 399.409 209.643C396.916 210.594 394.942 211.709 393.486 212.986C392.063 214.215 391.09 215.58 390.567 217.081C390.075 218.534 390.001 220.065 390.343 221.677C390.891 224.256 392.218 226.038 394.322 227.022C396.426 228.007 398.889 228.199 401.709 227.6ZM477.081 268.432L449.948 140.784L483.069 133.744L486.512 149.942L487.237 149.787C487.778 146.388 488.938 143.13 490.719 140.014C492.491 136.858 494.942 134.126 498.073 131.818C501.196 129.47 505.054 127.807 509.647 126.831C515.772 125.529 521.941 125.924 528.155 128.014C534.409 130.096 540.014 134.274 544.969 140.548C549.965 146.814 553.653 155.548 556.034 166.749C558.312 177.467 558.529 186.707 556.683 194.469C554.878 202.223 551.563 208.423 546.74 213.07C541.956 217.709 536.26 220.731 529.652 222.135C525.3 223.06 521.262 223.181 517.538 222.499C513.845 221.768 510.528 220.431 507.588 218.487C504.68 216.494 502.247 214.063 500.29 211.194L499.806 211.297L510.443 261.341L477.081 268.432ZM492.452 180.264C493.411 184.777 494.826 188.561 496.697 191.617C498.599 194.624 500.831 196.802 503.392 198.153C505.985 199.455 508.813 199.78 511.875 199.13C514.938 198.479 517.352 197.06 519.12 194.873C520.919 192.638 522.035 189.769 522.47 186.265C522.936 182.713 522.681 178.64 521.705 174.046C520.728 169.453 519.309 165.649 517.447 162.633C515.616 159.569 513.429 157.402 510.885 156.132C508.372 154.813 505.585 154.479 502.523 155.13C499.461 155.78 497.01 157.228 495.17 159.472C493.363 161.667 492.206 164.545 491.699 168.106C491.225 171.618 491.475 175.671 492.452 180.264Z" fill="#0A0B1E"/>
<path d="M606.075 217.165C600.702 218.307 595.696 217.41 591.054 214.476C586.449 211.485 583.594 207.276 582.488 201.847C581.32 196.577 582.236 191.663 585.236 187.105C588.283 182.536 592.492 179.681 597.865 178.539C602.959 177.456 607.85 178.377 612.538 181.301C617.272 184.216 620.224 188.308 621.392 193.578C622.114 197.2 621.863 200.691 620.641 204.048C619.455 207.35 617.59 210.191 615.046 212.571C612.492 214.905 609.502 216.436 606.075 217.165Z" fill="#0A0B1E"/>
</svg>
