<svg width="445" height="319" viewBox="0 0 445 319" fill="none" xmlns="http://www.w3.org/2000/svg">
<path d="M15.8337 199.276L41.9928 76.2076L95.1143 87.499C104.248 89.4404 111.887 92.8018 118.031 97.583C124.175 102.364 128.485 108.284 130.963 115.343C133.44 122.401 133.751 130.297 131.894 139.031C130.021 147.844 126.478 154.858 121.267 160.073C116.095 165.296 109.656 168.701 101.949 170.287C94.2827 171.882 85.7623 171.683 76.3879 169.69L44.6592 162.946L50.1772 136.986L75.1755 142.3C79.1015 143.134 82.5489 143.364 85.5175 142.99C88.5347 142.585 91.0143 141.458 92.9564 139.61C94.9386 137.77 96.3001 135.108 97.0409 131.622C97.7902 128.097 97.6379 125.071 96.5839 122.544C95.5785 119.985 93.7844 117.887 91.2015 116.249C88.6671 114.58 85.437 113.328 81.5109 112.494L69.7329 109.99L49.245 206.378L15.8337 199.276ZM99.951 158.117L118.712 221.144L82.4159 213.429L64.3764 150.556L99.951 158.117ZM197.783 195.745L208.819 143.825L241.99 150.876L222.371 243.177L190.882 236.484L194.612 218.937L193.651 218.733C190.396 224.196 185.911 228.058 180.197 230.319C174.491 232.539 168.192 232.917 161.302 231.453C154.852 230.082 149.518 227.399 145.301 223.404C141.124 219.418 138.247 214.535 136.669 208.757C135.132 202.987 135.059 196.732 136.45 189.993L148.967 131.103L182.138 138.154L171.102 190.073C170.172 194.649 170.571 198.481 172.301 201.571C174.071 204.669 177.039 206.66 181.206 207.546C183.97 208.133 186.477 208.059 188.727 207.323C191.026 206.556 192.946 205.205 194.487 203.272C196.077 201.307 197.176 198.798 197.783 195.745ZM283.448 201.894L272.412 253.814L239.241 246.763L258.861 154.462L290.349 161.155L286.619 178.702L287.581 178.906C290.827 173.483 295.328 169.645 301.082 167.393C306.877 165.149 313.159 164.747 319.93 166.186C326.46 167.574 331.809 170.281 335.978 174.308C340.195 178.303 343.072 183.185 344.609 188.955C346.186 194.734 346.244 200.964 344.782 207.646L332.264 266.536L299.093 259.485L310.129 207.566C311.14 203.007 310.74 199.175 308.93 196.068C307.16 192.97 304.192 190.979 300.025 190.093C297.301 189.514 294.79 189.608 292.491 190.376C290.241 191.112 288.341 192.467 286.791 194.44C285.25 196.373 284.135 198.858 283.448 201.894Z" fill="#0A0B1E"/>
<path d="M368.886 286.867C363.514 285.725 359.304 282.87 356.257 278.301C353.267 273.696 352.371 268.69 353.569 263.281C354.645 257.991 357.48 253.874 362.075 250.93C366.717 247.996 371.724 247.099 377.096 248.241C382.191 249.324 386.284 252.155 389.377 256.733C392.517 261.321 393.548 266.26 392.472 271.55C391.658 275.153 390.01 278.239 387.527 280.809C385.101 283.343 382.242 285.18 378.95 286.32C375.668 287.413 372.313 287.596 368.886 286.867Z" fill="#0A0B1E"/>
</svg>
