<svg width="165" height="21" viewBox="0 0 165 21" fill="none" xmlns="http://www.w3.org/2000/svg">
<mask id="mask0_1_15813" style="mask-type:luminance" maskUnits="userSpaceOnUse" x="0" y="0" width="165" height="21">
<path d="M164.938 0H0V20.479H164.938V0Z" fill="white"/>
</mask>
<g mask="url(#mask0_1_15813)">
<path d="M50.0918 11.3444H56.2588V8.31913H50.0918V3.49023H56.7242V0.348633H45.8447V20.1294H56.8406V17.1623H50.0918V11.3444Z" fill="#0A0B1E"/>
<path d="M38.5144 0.348633H30.9512V20.1294H35.1982V12.1007H38.1654C41.8306 12.1007 43.6924 10.1808 43.6924 6.28283C43.6924 2.32673 41.947 0.348633 38.5144 0.348633ZM37.409 9.13363H35.1982V3.49023H37.2345C38.689 3.49023 39.4453 4.47933 39.4453 6.45743C39.4453 8.26093 38.7471 9.13363 37.409 9.13363Z" fill="#0A0B1E"/>
<path d="M67.8365 10.355C70.3385 9.94774 71.6185 8.31874 71.6185 5.46794C71.6185 2.03544 70.0475 0.290039 66.906 0.290039H59.3428V20.0708H63.4153V11.9258H64.5207C66.3824 11.9258 67.3715 12.9148 67.4875 14.8929C67.6045 18.0346 67.7205 19.78 67.7785 20.0708H71.8515C71.5605 19.4309 71.3855 17.511 71.3855 14.2529C71.5025 11.984 70.2805 10.704 67.8365 10.355ZM65.3352 8.95874H63.4735V3.48984H65.3352C66.6733 3.48984 67.3715 4.30434 67.3715 5.99154C67.3715 7.96964 66.7315 8.95874 65.3352 8.95874Z" fill="#0A0B1E"/>
<path d="M21.9922 8.66823L19.0251 0.348633H14.6035L19.7814 13.2061V20.1294H23.9121V13.2061L29.381 0.348633H25.1339L21.9922 8.66823Z" fill="#0A0B1E"/>
<path d="M121.128 0.348633L115.602 20.1294H119.674L120.779 15.7078H126.423L127.529 20.1294H131.949L126.598 0.348633H121.128ZM121.71 12.7407L123.572 4.24663L125.609 12.7407H121.71Z" fill="#0A0B1E"/>
<path d="M144.691 14.0206L139.454 0.348633H133.811V20.1294H137.768V5.64293L143.12 20.1294H148.589V0.348633H144.691V14.0206Z" fill="#0A0B1E"/>
<path d="M158.654 0.348633H151.73V20.1294H158.48C162.785 20.1294 164.938 16.7551 164.938 10.0645C164.938 3.54843 162.843 0.348633 158.654 0.348633ZM157.839 17.1623H155.803V3.49023H158.014C159.876 3.49023 160.865 5.75923 160.865 10.239C160.865 14.8352 159.875 17.1623 157.839 17.1623Z" fill="#0A0B1E"/>
<path d="M97.4505 8.9595C94.6575 7.3887 93.2615 6.1088 93.2615 5.0615C93.2615 3.7234 94.0175 3.0253 95.4725 3.0253C96.7515 3.0253 97.3335 4.0143 97.3335 5.9924H101.289C101.58 2.0362 99.7195 0 95.6465 0C91.3415 0 89.1885 1.8617 89.1885 5.6433C89.1885 7.7378 90.5265 9.5995 93.2615 11.2867C95.9955 12.9739 97.3335 14.2538 97.3335 15.2429C97.3335 16.6973 96.6355 17.4537 95.2975 17.4537C93.7265 17.4537 92.9705 16.2901 92.9705 14.0211H88.8975C88.6065 18.3263 90.5265 20.479 94.7155 20.479C99.3115 20.479 101.639 18.6172 101.639 14.8356C101.639 12.4503 100.242 10.5304 97.4505 8.9595Z" fill="#0A0B1E"/>
<path d="M108.214 0.348633H104.141V20.1294H114.497V16.8132H108.214V0.348633Z" fill="#0A0B1E"/>
<path d="M86.3955 0.348633H82.3235V20.1294H86.3955V0.348633Z" fill="#0A0B1E"/>
<path d="M8.785 8.31913H4.0725V0.348633H0V20.1294H4.0725V11.3444H8.785V20.1294H12.9157V0.348633H8.785V8.31913Z" fill="#0A0B1E"/>
</g>
</svg>
