<svg width="234" height="112" viewBox="0 0 234 112" fill="none" xmlns="http://www.w3.org/2000/svg">
<g clip-path="url(#clip0_1_15834)">
<path d="M233.122 0H0.865234V112H233.122V0Z" fill="white"/>
<path d="M60.9311 54.5255C60.387 53.3433 60.1051 52.73 59.7242 51.8099C59.373 52.73 59.2543 53.0119 58.5915 54.5947L57.2955 57.7802H62.3953L60.9311 54.5255ZM55.8314 61.7225L54.0111 65.739H48.6937L57.9534 46.2353H62.4398L71.6945 65.739H66.4563L64.4777 61.7225H55.8314ZM84.941 54.6887C86.0242 54.6887 86.4743 54.6195 86.9195 54.3821C87.2676 54.1811 87.5574 53.893 87.7603 53.5461C87.9633 53.1992 88.0724 52.8054 88.077 52.4035C88.0705 52.002 87.9605 51.609 87.7578 51.2624C87.555 50.9158 87.2663 50.6273 86.9195 50.4249C86.4941 50.1875 86.044 50.138 84.941 50.138H78.4463V54.6492L84.941 54.6887ZM78.4463 65.739H73.5593V46.2353H86.2864C88.5518 46.2353 89.7785 46.5222 90.936 47.2246C91.6711 47.6908 92.2755 48.3363 92.6926 49.1003C93.1096 49.8643 93.3256 50.7219 93.3202 51.5923C93.3202 53.9072 92.1182 55.6285 89.922 56.5387C91.856 57.2262 92.4496 58.3095 92.4941 61.3565C92.5881 63.7901 92.7315 64.4974 93.3202 65.7489H87.9385C87.5823 64.6607 87.5131 64.2155 87.5626 62.3458C87.5626 59.5164 86.781 58.6409 84.2781 58.6409H78.4463V65.739ZM116.173 65.739V46.2353H134.019V50.1924H121.06V53.8528H132.511V57.8099H121.06V61.8264H134.019V65.7835L116.173 65.739ZM148.186 65.739H143.299V50.1776H136.547V46.2205H154.913V50.1776H148.186V65.739ZM178.853 58.1116C177.458 63.6615 173.66 66.4463 167.358 66.4463C160.181 66.4463 155.645 62.4546 155.645 56.1776C155.645 49.7473 160.319 45.5527 167.472 45.5527C170.9 45.5527 173.59 46.448 175.712 48.3623C177.155 49.5625 178.16 51.2059 178.571 53.0366H173.303C172.314 50.5634 170.38 49.3516 167.452 49.3516C163.529 49.3516 160.819 52.1166 160.819 56.0836C160.819 59.9517 163.51 62.6475 167.358 62.6475C170.474 62.6475 172.339 61.2526 173.472 58.1116H178.853ZM196.255 46.2353V53.8379H186.204V46.2353H181.317V65.739H186.204V57.7802H196.24V65.739H201.122V46.2353H196.255ZM32.8652 65.739V46.2353H49.9798V50.1924H37.7523V53.8528H48.9658V57.8099H37.7523V65.739H32.8652ZM96.5304 65.739V46.2353H113.65V50.1924H101.417V53.8528H112.656V57.8099H101.417V65.739H96.5304Z" fill="black"/>
</g>
<defs>
<clipPath id="clip0_1_15834">
<rect width="234" height="112" fill="white"/>
</clipPath>
</defs>
</svg>
