<svg width="113" height="40" viewBox="0 0 113 40" fill="none" xmlns="http://www.w3.org/2000/svg">
<mask id="mask0_1_15780" style="mask-type:luminance" maskUnits="userSpaceOnUse" x="-22" y="0" width="135" height="40">
<path d="M112.658 0H-21.4043V39.1551H112.658V0Z" fill="white"/>
</mask>
<g mask="url(#mask0_1_15780)">
<path d="M52.1359 16.3584C54.7359 16.3584 56.8429 18.4657 56.8429 21.0651V27.4977C56.8429 27.6711 56.7029 27.8115 56.5289 27.8115H55.2739C55.1009 27.8115 54.9599 27.6711 54.9599 27.4977V21.0651C54.9599 19.5055 53.6959 18.2411 52.1359 18.2411C50.5769 18.2411 49.3129 19.5055 49.3129 21.0651V27.4977C49.3129 27.6711 49.1719 27.8115 48.9989 27.8115H47.7439C47.5699 27.8115 47.4299 27.6711 47.4299 27.4977V21.0651C47.4299 18.4657 49.5369 16.3584 52.1359 16.3584Z" fill="#0A0B1E"/>
<path d="M47.7439 16.3584H48.9989C49.1719 16.3584 49.3129 16.4989 49.3129 16.6722V26.8701C49.3129 27.0435 49.1719 27.1839 48.9989 27.1839H47.7439C47.5699 27.1839 47.4299 27.0435 47.4299 26.8701V16.6722C47.4299 16.4989 47.5699 16.3584 47.7439 16.3584Z" fill="#0A0B1E"/>
<path d="M67.825 27.8115C72.451 27.8115 76.14 24.1237 76.14 19.5746C76.14 15.0256 72.451 11.3379 67.825 11.3379C67.411 11.3379 66.731 11.3379 65.783 11.3379V13.3774H67.825C71.413 13.3774 74.257 16.2219 74.257 19.7315C74.257 23.2412 71.413 25.9288 67.825 25.9288C67.401 25.9288 66.721 25.9288 65.783 25.9288V27.8115H67.825Z" fill="#0A0B1E"/>
<path d="M64.374 11.3379H65.943V27.8115H64.374C64.201 27.8115 64.061 27.671 64.061 27.4976V11.6516C64.061 11.4783 64.201 11.3379 64.374 11.3379Z" fill="#0A0B1E"/>
<path fill-rule="evenodd" clip-rule="evenodd" d="M28.4453 19.5746C28.4453 15.0256 32.1331 11.3379 36.6821 11.3379C41.2309 11.3379 44.9191 15.0256 44.9191 19.5746C44.9191 24.1237 41.2309 27.8115 36.6821 27.8115C32.1331 27.8115 28.4453 24.1237 28.4453 19.5746ZM36.6821 13.2206C33.1729 13.2206 30.328 16.0654 30.328 19.5746C30.328 23.0839 33.1729 25.9288 36.6821 25.9288C40.1913 25.9288 43.0362 23.0839 43.0362 19.5746C43.0362 16.0654 40.1913 13.2206 36.6821 13.2206Z" fill="#0A0B1E"/>
<path d="M104.945 20.3464L108.619 16.762C108.678 16.7049 108.756 16.6729 108.838 16.6729H110.842C110.929 16.6729 110.999 16.7431 110.999 16.8298C110.999 16.8714 110.983 16.9113 110.953 16.9407L106.907 20.9874L112.267 27.5555C112.321 27.6226 112.311 27.7215 112.245 27.7763C112.216 27.7992 112.181 27.8116 112.145 27.8116L110.27 27.8084C110.176 27.8082 110.088 27.7667 110.029 27.695L105.573 22.3209L104.945 22.9485V27.4945C104.945 27.6677 104.805 27.8083 104.632 27.8083H103.376C103.203 27.8083 103.062 27.6677 103.062 27.4945V12.4368C103.062 12.2635 103.203 12.123 103.376 12.123H104.632C104.805 12.123 104.945 12.2635 104.945 12.4368V20.3464Z" fill="#0A0B1E"/>
<path d="M100.381 18.0963L100.321 18.0313C99.326 16.9975 97.953 16.3584 96.436 16.3584C94.878 16.3584 93.471 16.9916 92.47 18.0564C91.512 19.0802 90.936 20.4927 90.936 22.0849C90.936 25.4045 93.398 27.8115 96.436 27.8115C97.947 27.8115 99.315 27.1773 100.309 26.1508L100.305 26.1467L100.374 26.0738C100.49 25.9516 100.488 25.76 100.371 25.6395L99.496 24.7401C99.379 24.619 99.187 24.6141 99.063 24.7272C98.396 25.4726 97.454 25.9288 96.436 25.9288C94.424 25.9288 92.818 24.3509 92.818 22.0849C92.818 19.8189 94.424 18.2411 96.436 18.2411C97.457 18.2411 98.401 18.6999 99.069 19.4491C99.194 19.5557 99.381 19.5483 99.498 19.429L100.374 18.527C100.491 18.4078 100.493 18.2189 100.381 18.0963Z" fill="#0A0B1E"/>
<path d="M78.2579 22.0849C78.2579 18.8512 80.6369 16.3584 83.7579 16.3584C86.7649 16.3584 89.1589 18.8499 89.2559 21.8934C89.2349 22.046 89.1029 22.1634 88.9449 22.1634H81.7399C81.5669 22.1634 81.4259 22.0229 81.4259 21.8496V21.0651C81.4259 20.8918 81.5669 20.7513 81.7399 20.7513H87.1539C86.6379 19.2649 85.2839 18.2411 83.7579 18.2411C81.7469 18.2411 80.1409 19.8189 80.1409 22.0849C80.1409 24.3509 81.7469 25.9288 83.7579 25.9288C84.7769 25.9288 85.7179 25.4726 86.3859 24.7272C86.5089 24.6141 86.7009 24.619 86.8189 24.7401L87.6939 25.6395C87.8109 25.76 87.8119 25.9516 87.6969 26.0738L87.6279 26.1467L87.6319 26.1509C86.6419 27.1743 85.2789 27.8115 83.7579 27.8115C80.6369 27.8115 78.2579 25.3187 78.2579 22.0849Z" fill="#0A0B1E"/>
<path d="M52.1359 16.3584C54.7359 16.3584 56.8429 18.4657 56.8429 21.0651V27.4977C56.8429 27.6711 56.7029 27.8115 56.5289 27.8115H55.2739C55.1009 27.8115 54.9599 27.6711 54.9599 27.4977V21.0651C54.9599 19.5055 53.6959 18.2411 52.1359 18.2411C50.5769 18.2411 49.3129 19.5055 49.3129 21.0651V27.4977C49.3129 27.6711 49.1719 27.8115 48.9989 27.8115H47.7439C47.5699 27.8115 47.4299 27.6711 47.4299 27.4977V21.0651C47.4299 18.4657 49.5369 16.3584 52.1359 16.3584Z" stroke="#0A0B1E" stroke-width="0.350643" stroke-linejoin="round"/>
<path d="M47.7439 16.3584H48.9989C49.1719 16.3584 49.3129 16.4989 49.3129 16.6722V26.8701C49.3129 27.0435 49.1719 27.1839 48.9989 27.1839H47.7439C47.5699 27.1839 47.4299 27.0435 47.4299 26.8701V16.6722C47.4299 16.4989 47.5699 16.3584 47.7439 16.3584Z" stroke="#0A0B1E" stroke-width="0.350643" stroke-linejoin="round"/>
<path d="M67.825 27.8115C72.451 27.8115 76.14 24.1237 76.14 19.5746C76.14 15.0256 72.451 11.3379 67.825 11.3379C67.411 11.3379 66.731 11.3379 65.783 11.3379V13.3774H67.825C71.413 13.3774 74.257 16.2219 74.257 19.7315C74.257 23.2412 71.413 25.9288 67.825 25.9288C67.401 25.9288 66.721 25.9288 65.783 25.9288V27.8115H67.825Z" stroke="#0A0B1E" stroke-width="0.350643" stroke-linejoin="round"/>
<path d="M64.374 11.3379H65.943V27.8115H64.374C64.201 27.8115 64.061 27.671 64.061 27.4976V11.6516C64.061 11.4783 64.201 11.3379 64.374 11.3379Z" stroke="#0A0B1E" stroke-width="0.350643" stroke-linejoin="round"/>
<path fill-rule="evenodd" clip-rule="evenodd" d="M28.4453 19.5746C28.4453 15.0256 32.1331 11.3379 36.6821 11.3379C41.2309 11.3379 44.9191 15.0256 44.9191 19.5746C44.9191 24.1237 41.2309 27.8115 36.6821 27.8115C32.1331 27.8115 28.4453 24.1237 28.4453 19.5746ZM36.6821 13.2206C33.1729 13.2206 30.328 16.0654 30.328 19.5746C30.328 23.0839 33.1729 25.9288 36.6821 25.9288C40.1913 25.9288 43.0362 23.0839 43.0362 19.5746C43.0362 16.0654 40.1913 13.2206 36.6821 13.2206Z" stroke="#0A0B1E" stroke-width="0.350643" stroke-linejoin="round"/>
<path d="M104.945 20.3464L108.619 16.762C108.678 16.7049 108.756 16.6729 108.838 16.6729H110.842C110.929 16.6729 110.999 16.7431 110.999 16.8298C110.999 16.8714 110.983 16.9113 110.953 16.9407L106.907 20.9874L112.267 27.5555C112.321 27.6226 112.311 27.7215 112.245 27.7763C112.216 27.7992 112.181 27.8116 112.145 27.8116L110.27 27.8084C110.176 27.8082 110.088 27.7667 110.029 27.695L105.573 22.3209L104.945 22.9485V27.4945C104.945 27.6677 104.805 27.8083 104.632 27.8083H103.376C103.203 27.8083 103.062 27.6677 103.062 27.4945V12.4368C103.062 12.2635 103.203 12.123 103.376 12.123H104.632C104.805 12.123 104.945 12.2635 104.945 12.4368V20.3464Z" stroke="#0A0B1E" stroke-width="0.350643" stroke-linejoin="round"/>
<path d="M100.381 18.0963L100.321 18.0313C99.326 16.9975 97.953 16.3584 96.436 16.3584C94.878 16.3584 93.471 16.9916 92.47 18.0564C91.512 19.0802 90.936 20.4927 90.936 22.0849C90.936 25.4045 93.398 27.8115 96.436 27.8115C97.947 27.8115 99.315 27.1773 100.309 26.1508L100.305 26.1467L100.374 26.0738C100.49 25.9516 100.488 25.76 100.371 25.6395L99.496 24.7401C99.379 24.619 99.187 24.6141 99.063 24.7272C98.396 25.4726 97.454 25.9288 96.436 25.9288C94.424 25.9288 92.818 24.3509 92.818 22.0849C92.818 19.8189 94.424 18.2411 96.436 18.2411C97.457 18.2411 98.401 18.6999 99.069 19.4491C99.194 19.5557 99.381 19.5483 99.498 19.429L100.374 18.527C100.491 18.4078 100.493 18.2189 100.381 18.0963Z" stroke="#0A0B1E" stroke-width="0.350643" stroke-linejoin="round"/>
<path d="M78.2579 22.0849C78.2579 18.8512 80.6369 16.3584 83.7579 16.3584C86.7649 16.3584 89.1589 18.8499 89.2559 21.8934C89.2349 22.046 89.1029 22.1634 88.9449 22.1634H81.7399C81.5669 22.1634 81.4259 22.0229 81.4259 21.8496V21.0651C81.4259 20.8918 81.5669 20.7513 81.7399 20.7513H87.1539C86.6379 19.2649 85.2839 18.2411 83.7579 18.2411C81.7469 18.2411 80.1409 19.8189 80.1409 22.0849C80.1409 24.3509 81.7469 25.9288 83.7579 25.9288C84.7769 25.9288 85.7179 25.4726 86.3859 24.7272C86.5089 24.6141 86.7009 24.619 86.8189 24.7401L87.6939 25.6395C87.8109 25.76 87.8119 25.9516 87.6969 26.0738L87.6279 26.1467L87.6319 26.1509C86.6419 27.1743 85.2789 27.8115 83.7579 27.8115C80.6369 27.8115 78.2579 25.3187 78.2579 22.0849Z" stroke="#0A0B1E" stroke-width="0.350643" stroke-linejoin="round"/>
<path fill-rule="evenodd" clip-rule="evenodd" d="M8.81 9.04492H13.3279C13.7361 9.04492 14.0671 9.37582 14.0671 9.78402V11.6319C14.0671 12.0401 13.7361 12.371 13.3279 12.371H11.2972C10.624 11.1479 9.7848 10.0291 8.81 9.04492ZM5.8571 12.371H-1.8243C-2.2325 12.371 -2.5634 12.0401 -2.5634 11.6319V9.78402C-2.5634 9.37582 -2.2325 9.04492 -1.8243 9.04492C1.205 9.04492 3.9356 10.3237 5.8571 12.371ZM5.8571 26.7841C3.9356 28.8314 1.205 30.1102 -1.8243 30.1102C-2.2325 30.1102 -2.5634 29.7793 -2.5634 29.3711V27.5232C-2.5634 27.115 -2.2325 26.7841 -1.8243 26.7841H5.8571ZM11.2972 26.7841H13.3279C13.7361 26.7841 14.0671 27.115 14.0671 27.5232V29.3711C14.0671 29.7793 13.7361 30.1102 13.3279 30.1102H8.81C9.7848 29.126 10.624 28.0072 11.2972 26.7841ZM8.3398 22.3493C8.0109 23.5584 7.472 24.6809 6.7647 25.6754H-1.8243C-2.2325 25.6754 -2.5634 25.3445 -2.5634 24.9363V23.0884C-2.5634 22.6802 -2.2325 22.3493 -1.8243 22.3493H8.3398ZM12.887 22.3493H13.3279C13.7361 22.3493 14.0671 22.6802 14.0671 23.0884V24.9363C14.0671 25.3445 13.7361 25.6754 13.3279 25.6754H11.8487C12.3179 24.6251 12.6695 23.5108 12.887 22.3493ZM8.5778 17.9145C8.6637 18.4562 8.7084 19.0117 8.7084 19.5776C8.7084 20.1434 8.6637 20.6989 8.5778 21.2406H-1.8243C-2.2325 21.2406 -2.5634 20.9097 -2.5634 20.5015V18.6537C-2.5634 18.2454 -2.2325 17.9145 -1.8243 17.9145H8.5778ZM13.0518 17.9145H13.3279C13.7361 17.9145 14.0671 18.2454 14.0671 18.6537V20.5015C14.0671 20.9097 13.7361 21.2406 13.3279 21.2406H13.0518C13.1121 20.6946 13.1431 20.1397 13.1431 19.5776C13.1431 19.0154 13.1121 18.4605 13.0518 17.9145ZM6.7647 13.4797C7.472 14.4742 8.0109 15.5967 8.3398 16.8058H-1.8859C-2.2941 16.8058 -2.625 16.4749 -2.625 16.0667V14.2189C-2.625 13.8106 -2.2941 13.4797 -1.8859 13.4797H6.7647ZM11.8487 13.4797H13.2663C13.6745 13.4797 14.0055 13.8106 14.0055 14.2189V16.0667C14.0055 16.4749 13.6745 16.8058 13.2663 16.8058H12.887C12.6695 15.6443 12.3179 14.53 11.8487 13.4797Z" fill="#0A0B1E"/>
<path fill-rule="evenodd" clip-rule="evenodd" d="M-1.88491 38.9803C-12.6005 38.9803 -21.2871 30.2937 -21.2871 19.5781C-21.2871 8.86248 -12.6005 0.175781 -1.88491 0.175781C8.83069 0.175781 17.5174 8.86248 17.5174 19.5781C17.5174 30.2937 8.83069 38.9803 -1.88491 38.9803ZM-1.88491 34.5455C6.38139 34.5455 13.0826 27.8444 13.0826 19.5781C13.0826 11.3118 6.38139 4.61058 -1.88491 4.61058C-10.1512 4.61058 -16.8523 11.3118 -16.8523 19.5781C-16.8523 27.8444 -10.1512 34.5455 -1.88491 34.5455Z" fill="#0A0B1E"/>
</g>
</svg>
