<svg width="202" height="112" viewBox="0 0 202 112" fill="none" xmlns="http://www.w3.org/2000/svg">
<g clip-path="url(#clip0_1_15829)">
<path d="M201.76 0H0.708984V112H201.76V0Z" fill="white"/>
<path d="M75.9419 52.5383H62.9275C62.174 52.5383 61.6261 53.2917 61.8772 53.9995L65.0053 62.105C65.1423 62.4703 64.8683 62.8585 64.4801 62.8356L60.4845 62.5845C60.3018 62.5617 60.1191 62.653 60.0278 62.8128L56.9226 67.2195C56.7628 67.4706 56.4203 67.5619 56.1691 67.3793L51.557 64.2513C51.3743 64.1371 51.1232 64.1371 50.9634 64.2513L44.5703 68.5666C44.1593 68.8406 43.6113 68.4524 43.7483 67.9729L45.5293 61.6255C45.5978 61.3515 45.4836 61.1004 45.2096 60.9862L41.8304 59.6163C41.4879 59.4793 41.3966 59.0683 41.6249 58.7943L44.5931 55.0955C44.7301 54.9128 44.753 54.6617 44.616 54.4562L42.1044 50.8258C41.8761 50.4833 42.0816 50.0267 42.5154 50.0039L46.4197 49.707C46.6937 49.6842 46.922 49.4331 46.922 49.1362L46.6024 43.6793C46.5796 43.2912 46.9677 43.0172 47.3559 43.1542L52.1963 45.1634C52.4018 45.2547 52.653 45.2091 52.79 45.0264L56.1235 41.3047C56.3975 41.0079 56.8769 41.0993 57.0368 41.4417L59.046 46.6018C59.32 47.2412 60.1191 47.4695 60.6671 47.0357L68.4986 41.2134C69.3891 40.5513 68.8183 39.1357 67.7223 39.2955L62.5622 39.9805C62.311 40.0261 62.0827 39.8663 61.9914 39.638L59.2743 32.6741C58.9775 31.9435 58.0414 31.7608 57.4934 32.3545L51.6027 38.7475C51.4428 38.9073 51.2145 38.953 51.009 38.8617L43.246 35.5967C42.5611 35.3227 41.7848 35.8021 41.7619 36.5556L41.4879 44.5698C41.4651 44.8438 41.2596 45.0721 40.9856 45.0721L33.9076 45.5287C33.0856 45.5744 32.629 46.5105 33.0856 47.1955L37.7891 54.1365C37.9261 54.342 37.9033 54.5932 37.7434 54.7987L32.9715 60.2784C32.492 60.8264 32.6975 61.6712 33.3596 61.968L38.8394 64.3426C39.0905 64.4567 39.2047 64.7079 39.1362 64.9591L35.62 78.6585C35.3689 79.6403 36.4648 80.3709 37.2868 79.8001L50.4611 70.3475C50.6437 70.2333 50.8949 70.2105 51.0775 70.3475L57.0824 74.5715C57.5847 74.9368 58.2469 74.777 58.5894 74.2975L62.3339 68.5437C62.448 68.3611 62.6535 68.2697 62.8362 68.3154L71.8093 69.3885C72.5399 69.5027 73.2706 68.8862 72.9966 68.2241L69.2521 58.566C69.1379 58.292 69.2521 58.018 69.5717 57.8582L76.3986 54.6388C77.4489 54.0909 77.0836 52.5383 75.9419 52.5383Z" fill="#8039E9"/>
<path d="M169.304 52.5369H159.189C158.983 52.5369 158.824 52.6967 158.824 52.9022V57.3774C158.824 57.5829 158.983 57.7427 159.189 57.7427H163.504C163.71 57.7427 163.869 57.9025 163.869 58.108C163.824 60.4141 163.367 64.5467 159.166 64.5467C155.741 64.5467 154.394 60.4141 154.394 55.5965C154.394 49.8655 155.81 46.3265 158.983 46.3265C161.289 46.3265 162.043 48.2673 162.248 48.9979C162.294 49.1577 162.454 49.2719 162.614 49.2719H167.865C168.071 49.2719 168.253 49.0892 168.23 48.8837C168.025 46.0069 165.559 40.9838 159.075 40.9838C154.531 40.9838 150.284 43.7465 148.937 50.5733V41.7829C148.937 41.6687 148.846 41.6002 148.754 41.6002H143.183C143.069 41.6002 143.001 41.6916 143.001 41.7829V57.4687C143.001 57.6742 142.727 57.7199 142.635 57.5372L135.329 41.6916C135.283 41.6231 135.238 41.5774 135.169 41.5774H130.237C130.123 41.5774 130.055 41.6687 130.055 41.7601V50.5505C128.228 44.9794 123.274 40.9609 116.835 40.9609C109.643 40.9609 104.323 45.9384 103.09 52.5369H93.0207C92.9065 52.5369 92.838 52.6283 92.838 52.7196V57.56C92.838 57.6742 92.9294 57.7427 93.0207 57.7427H97.7242C97.8383 57.7427 97.9068 57.834 97.9068 57.9254C97.884 60.1629 97.4958 64.5467 93.2033 64.5467C89.7785 64.5467 88.4314 60.4141 88.4314 55.5965C88.4314 49.8655 89.847 46.3265 93.0207 46.3265C95.4638 46.3265 96.1716 48.5413 96.3314 49.1349C96.3542 49.2262 96.4227 49.2719 96.514 49.2719H102.154C102.268 49.2719 102.359 49.1806 102.336 49.0664C102.222 46.2352 99.8019 40.9838 93.1577 40.9838C87.6551 40.9838 82.5635 45.0479 82.5635 55.5508C82.5635 62.7658 85.3947 69.9123 93.249 69.9123C99.0484 69.9123 102.77 65.4144 103.592 60.0031C105.35 65.7569 110.35 69.9123 116.926 69.9123C123.274 69.9123 128.32 65.8939 130.146 60.2771V69.1589C130.146 69.273 130.237 69.3415 130.329 69.3415H135.9C136.014 69.3415 136.083 69.2502 136.083 69.1589V53.7242C136.083 53.5187 136.356 53.4731 136.448 53.6557L143.754 69.2502C143.8 69.3187 143.846 69.3644 143.914 69.3644H148.846C148.96 69.3644 149.028 69.273 149.028 69.1817V60.3684C150.102 65.6655 153.161 69.958 159.234 69.958C165.856 69.958 169.76 64.1358 169.76 57.7655V52.9936C169.669 52.6967 169.509 52.5369 169.304 52.5369ZM116.88 64.1358C112.2 64.1358 108.958 60.5511 108.958 55.4595C108.958 50.3679 112.2 46.7832 116.88 46.7832C121.538 46.7832 124.803 50.3679 124.803 55.4595C124.803 60.5511 121.538 64.1358 116.88 64.1358Z" fill="#3E0075"/>
</g>
<defs>
<clipPath id="clip0_1_15829">
<rect width="202" height="112" fill="white"/>
</clipPath>
</defs>
</svg>
