<svg width="162" height="112" viewBox="0 0 162 112" fill="none" xmlns="http://www.w3.org/2000/svg">
<g clip-path="url(#clip0_1_15807)">
<path d="M161.743 0H0.37207V112H161.743V0Z" fill="white"/>
<path d="M117.83 48.4163C125.004 48.4163 129.743 53.4502 129.743 61.0585C129.743 68.6669 124.988 73.75 117.83 73.75C110.38 73.75 105.413 68.6669 105.413 61.0585C105.413 53.4502 110.396 48.4163 117.83 48.4163ZM79.5726 48.9246V73.2253L74.2163 72.1103V49.9904L79.5726 48.9246ZM101.03 48.3507V54.0569L97.9464 54.6308C95.3007 55.1391 93.5802 56.5329 93.5802 59.632V73.2253L88.2239 72.1103V58.8121C88.2239 52.204 92.0545 50.2528 97.9464 48.8754L101.03 48.3507ZM44.0748 48.4163C46.1849 48.4163 48.7494 49.5969 50.2102 51.7285C51.6711 49.7936 54.1057 48.5147 57.1085 48.4819C60.8742 48.4327 65.565 50.8267 65.565 58.0087V73.2253L60.2087 72.1103V58.0087C60.2087 55.5983 58.4882 53.8766 55.9399 53.8766C53.3916 53.8766 51.6711 55.5983 51.6711 58.0087V73.2253L46.3147 72.1103V58.0087C46.3147 55.5983 44.5942 53.8766 42.0459 53.8766C39.4651 53.8766 37.7284 55.5983 37.7284 58.0087V73.2253L32.3721 72.1103V49.9904L37.7284 48.9246V51.4334C39.2217 49.5805 41.494 48.4163 44.0748 48.4163ZM117.83 53.5486C113.675 53.5486 110.883 56.5329 110.883 61.0585C110.883 65.5842 113.675 68.6177 117.83 68.6177C121.709 68.6177 124.274 65.5842 124.274 61.0585C124.274 56.5329 121.709 53.5486 117.83 53.5486ZM77.0081 38.25C78.9558 38.25 80.2543 39.6274 80.2543 41.6934C80.2543 43.7595 78.9558 45.1368 77.0081 45.1368C74.9792 45.1368 73.632 43.7595 73.632 41.6934C73.632 39.6274 74.9792 38.25 77.0081 38.25Z" fill="#0A0B1E"/>
</g>
<defs>
<clipPath id="clip0_1_15807">
<rect width="162" height="112" fill="white"/>
</clipPath>
</defs>
</svg>
