<svg width="174" height="112" viewBox="0 0 174 112" fill="none" xmlns="http://www.w3.org/2000/svg">
<g clip-path="url(#clip0_1_15803)">
<path d="M173.347 0H0.759766V112H173.347V0Z" fill="white"/>
<path fill-rule="evenodd" clip-rule="evenodd" d="M80.0785 54.1307L74.3296 43.1152H66.3693L80.0785 69.2462L93.7465 43.1152H85.8274L80.0785 54.1307ZM130.17 48.9447L141.347 68.6437H132.743L131.376 65.9094H121.647L120.32 68.6437H111.718L126.511 42.4721L130.17 48.9447ZM130.17 44.9649C130.491 44.9649 130.773 44.8442 130.974 44.6033C131.216 44.3619 131.336 44.0804 131.336 43.7588C131.336 43.4373 131.216 43.1958 130.974 42.955C130.773 42.7135 130.491 42.5928 130.17 42.5928C129.848 42.5928 129.567 42.7135 129.326 42.955C129.084 43.1964 129.004 43.4373 129.004 43.7588C129.004 44.0804 129.125 44.3619 129.326 44.6033C129.567 44.8442 129.848 44.9649 130.17 44.9649ZM130.17 42.3513C129.809 42.3513 129.446 42.4721 129.206 42.7536C128.884 42.9944 128.762 43.3566 128.762 43.7582C128.762 44.1605 128.884 44.5221 129.165 44.7629C129.445 45.0444 129.768 45.2052 130.17 45.2052C130.531 45.2052 130.893 45.0444 131.174 44.803C131.456 44.5221 131.576 44.1599 131.576 43.7577C131.576 43.3961 131.456 43.0339 131.174 42.753C130.894 42.4721 130.571 42.3513 130.17 42.3513ZM130.17 43.9997C130.21 43.9997 130.251 44.0403 130.291 44.0403C130.331 44.0403 130.371 44.0804 130.371 44.161C130.412 44.2011 130.412 44.2411 130.412 44.3619C130.412 44.4425 130.412 44.5226 130.451 44.5627H130.813V44.5226V44.4826V44.2818C130.813 44.121 130.773 44.0003 130.652 43.9202C130.613 43.8801 130.532 43.8801 130.451 43.8395C130.557 43.835 130.657 43.792 130.732 43.7188C130.773 43.6787 130.813 43.598 130.813 43.4373C130.813 43.2765 130.773 43.1558 130.612 43.0751C130.512 43.0248 130.402 42.9973 130.29 42.9944H129.526V44.5627H129.968V43.9997H130.17ZM130.17 43.2765H129.968V43.7188H130.17C130.25 43.7188 130.29 43.6787 130.331 43.6787C130.411 43.6387 130.411 43.558 130.411 43.4779C130.411 43.3972 130.371 43.3171 130.29 43.3171C130.251 43.2765 130.21 43.2765 130.17 43.2765ZM126.511 56.3815L124.059 61.1257H128.964L126.511 56.3815ZM64.8016 68.6437V43.1157H57.3643V68.6437H64.8016ZM111.034 49.95V43.1157H95.3141V68.6437H111.034V61.8501H102.793V58.5127H111.034V53.166H102.793V49.95H111.034ZM52.9416 43.1157H45.5043V53.0453L32.7598 41.4668V68.6437H40.1971V59.1552L52.941 70.5335L52.9416 43.1157Z" fill="black"/>
</g>
<defs>
<clipPath id="clip0_1_15803">
<rect width="174" height="112" fill="white"/>
</clipPath>
</defs>
</svg>
